<?xml version="1.0" encoding="iso-8859-1"?>
<!-- Generator: Adobe Illustrator 19.0.0, SVG Export Plug-In . SVG Version: 6.00 Build 0)  -->
<svg xmlns="http://www.w3.org/2000/svg" xmlns:xlink="http://www.w3.org/1999/xlink" version="1.1" id="Capa_1" x="0px" y="0px" viewBox="0 0 480 480" style="enable-background:new 0 0 480 480;" xml:space="preserve" width="512px" height="512px">
<g>
	<g>
		<path d="M408,64h-48v16h48c13.255,0,24,10.745,24,24v216H48V104c0-13.255,10.745-24,24-24h232V64H72    c-22.08,0.026-39.974,17.92-40,40v240c0.026,22.08,17.92,39.974,40,40h116.904l-26.664,80H136v16h208v-16h-26.24l-26.664-80H408    c22.08-0.026,39.974-17.92,40-40V104C447.973,81.919,430.08,64.026,408,64z M300.896,464H179.104l26.664-80h68.464L300.896,464z     M432,344c0,13.255-10.745,24-24,24H72c-13.255,0-24-10.745-24-24v-8h384V344z" fill="#ff9900"/>
	</g>
</g>
<g>
	<g>
		<path d="M400,120h-48c-4.418,0-8,3.582-8,8v152h-16V160c0-4.418-3.582-8-8-8h-48c-4.418,0-8,3.582-8,8v120h-16v-88    c0-4.418-3.582-8-8-8h-48c-4.418,0-8,3.582-8,8v88h-16v-24c0-4.418-3.582-8-8-8h-48c-4.418,0-8,3.582-8,8v24H72v16h336V128    C408,123.581,404.418,120,400,120z M152,280h-32v-16h32V280z M232,280h-32v-16h32V280z M232,248h-32v-16h32V248z M232,216h-32v-16    h32V216z M312,280h-32v-16h32V280z M312,248h-32v-16h32V248z M312,216h-32v-16h32V216z M312,184h-32v-16h32V184z M392,280h-32v-16    h32V280z M392,248h-32v-16h32V248z M392,216h-32v-16h32V216z M392,184h-32v-16h32V184z M392,152h-32v-16h32V152z" fill="#ff9900"/>
	</g>
</g>
<g>
	<g>
		<rect x="72" y="184" width="16" height="16" fill="#ff9900"/>
	</g>
</g>
<g>
	<g>
		<rect x="72" y="216" width="16" height="16" fill="#ff9900"/>
	</g>
</g>
<g>
	<g>
		<rect x="72" y="248" width="16" height="16" fill="#ff9900"/>
	</g>
</g>
<g>
	<g>
		<rect x="72" y="152" width="16" height="16" fill="#ff9900"/>
	</g>
</g>
<g>
	<g>
		<rect x="72" y="120" width="16" height="16" fill="#ff9900"/>
	</g>
</g>
<g>
	<g>
		<path d="M383.76,6.056c-1.074-4.282-5.413-6.884-9.696-5.816l-32,8l3.872,15.52l11.928-2.96l-65.128,97.68l-42.208-14.072    c-2.875-0.956-6.043-0.207-8.184,1.936l-44.976,44.976l-35.768-7.16c-3.538-0.71-7.113,1.037-8.728,4.264l-32,64l14.32,7.152    l29.264-58.536l34.008,6.8c2.614,0.516,5.313-0.302,7.2-2.184l44.512-44.504l43.304,14.44c3.422,1.14,7.183-0.151,9.184-3.152    l69.968-104.96l3.608,14.464l15.52-3.888L383.76,6.056z" fill="#ff9900"/>
	</g>
</g>
<g>
</g>
<g>
</g>
<g>
</g>
<g>
</g>
<g>
</g>
<g>
</g>
<g>
</g>
<g>
</g>
<g>
</g>
<g>
</g>
<g>
</g>
<g>
</g>
<g>
</g>
<g>
</g>
<g>
</g>
</svg>
